<svg
    class="h-455px w-550px"
    viewBox="533.5,272,550,455"
    xmlns="http://www.w3.org/2000/svg"
    xmlns:xlink="http://www.w3.org/1999/xlink">
    <path
        fill="white"
        d="M613.62286,712.55c-20.7506,-3.36 -40.53676,-15.45 -51.41417,-31.42c-6.16453,-9.04 -8.90874,-16.76 -9.48542,-26.69c-0.86502,-14.78 4.32511,-27.25 16.87292,-40.54l6.95995,-7.36l-4.71288,-5.27c-9.75388,-10.91 -17.76777,-25.17 -21.59574,-38.48c-1.96867,-6.84 -2.23713,-9.93 -2.15759,-25.29c0.0696,-14.68 0.42754,-18.79 2.24707,-25.5c3.12204,-11.53 11.85181,-28.64 19.00067,-37.23c24.24052,-29.12 62.74895,-38.5 95.92804,-23.37c18.67256,8.51 36.55964,28.03 43.25114,47.18c8.77948,25.15 5.60773,52.74 -8.31217,72.36c-7.24829,10.21 -16.56469,18.08 -27.91936,23.57c-12.22963,5.91 -18.30468,7.43 -29.82837,7.43c-9.63456,0 -16.37578,-1.35 -25.54303,-5.1l-5.80659,-2.37l-4.2058,2.13c-2.31667,1.17 -4.98134,2.81 -5.9259,3.65c-1.61073,1.42 -1.57096,1.62 0.58662,3.33c4.18591,3.31 16.06755,8.79 25.06577,11.56c8.02383,2.47 10.38027,2.74 24.77743,2.8c17.55897,0.07 21.60568,-0.74 35.01851,-6.95c5.00122,-2.32 9.01811,-5.18 13.20403,-9.41c6.57218,-6.63 9.47548,-7.55 12.92563,-4.08c2.49564,2.51 2.49564,2.53 -0.52697,16.97c-3.73849,17.77 -7.96418,31.29 -13.36311,42.72c-16.19681,34.24 -41.49126,53.77 -72.11506,55.67c-4.37483,0.28 -10.19136,0.13 -12.92563,-0.31M636.49128,693c3.82797,-0.81 10.32062,-3.12 14.41705,-5.13c9.80359,-4.8 21.4466,-16.53 27.9293,-28.13c5.89607,-10.56 10.42999,-23.79 9.46554,-27.65c-0.66617,-2.68 -0.94457,-2.81 -4.88191,-2.29c-2.29678,0.3 -7.53664,1.31 -11.63306,2.25c-8.9684,2.05 -29.38095,2.34 -38.63768,0.55c-11.11604,-2.15 -23.2363,-6.1 -33.23875,-10.84l-9.74393,-4.6l-5.49836,5.42c-6.84064,6.74 -9.78371,11.67 -11.87169,19.85c-1.37211,5.38 -1.4417,7.35 -0.44743,12.48c5.15037,26.57 34.92902,44.25 64.14094,38.09M595.84515,587.08l5.06088,-2.93l-4.89185,-6.07c-10.44987,-12.99 -15.22241,-27.56 -14.41705,-44.08c0.84514,-17.48 6.78098,-31.22 19.21941,-44.48c16.38572,-17.47 37.16615,-23.72 37.16615,-11.18c0,1.4 -2.5553,3.61 -8.69994,7.52c-15.37155,9.78 -24.13115,21.27 -27.74039,36.42c-5.47848,22.97 9.89308,49.02 32.90069,55.74c3.40043,1 9.04794,1.7 13.41282,1.66c25.4436,-0.2 44.81216,-21.56 44.81216,-49.44c0,-28.51 -17.05189,-53.55 -43.88748,-64.45c-8.2724,-3.36 -15.5903,-4.27 -25.53309,-3.17c-25.19503,2.79 -45.38884,21.06 -54.02912,48.88c-2.02833,6.55 -2.32661,9.52 -2.32661,23.5c0,17.43 1.15336,22.94 7.40738,35.41c4.71288,9.37 13.85031,20.72 15.96812,19.81c0.2784,-0.12 2.78398,-1.54 5.57791,-3.14z"></path>
</svg>